<svg xmlns="http://www.w3.org/2000/svg" version="1.1" xmlns:xlink="http://www.w3.org/1999/xlink" width="512" height="512" x="0" y="0" viewBox="0 0 48 48" style="enable-background:new 0 0 512 512" xml:space="preserve"><g><path d="M29.99 4.42 24 1l-5.99 3.42L24 7.85zM21 15.29l2 1.14V9.58l-6-3.42v4.4l4 2.28zM25 16.43l2-1.14v-2.45l4-2.28v-4.4l-6 3.42zM17.99 13.42 12 10l-5.99 3.42L12 16.85zM11 18.58l-6-3.42V22l6 3.43zM19 15.16l-6 3.42v6.85l2-1.14v-3.45l4-2.28zM15 26.59l-3 1.71-4.64-2.65-1.35.77L12 29.85l3-1.72zM5 35l6 3.43v-6.85l-6-3.42zM15 31.16v-.72l-2 1.14v6.85l2-1.14v-3.45l2.35-1.34zM29.99 21.42 24 18l-5.99 3.42L24 24.85zM23 26.58l-6-3.42V30l6 3.43zM31 23.16l-6 3.42v6.85L31 30zM29.99 34.42l-.99-.57-.36-.2L24 36.3l-4.64-2.65-.36.2-.99.57.99.57 5 2.86 5-2.86zM17 43l6 3.43v-6.85l-6-3.42zM25 46.43 31 43v-6.84l-6 3.42zM36 16.85l5.99-3.43L36 10l-5.99 3.42zM35 25.43v-6.85l-6-3.42v3.4l4 2.28v3.45zM37 18.58v6.85L43 22v-6.84zM40.64 25.65 36 28.3l-3-1.71v1.54l3 1.72 5.99-3.43zM33 31.16l-2.35 1.34L33 33.84v3.45l2 1.14v-6.85l-2-1.14zM37 38.43 43 35v-6.84l-6 3.42z" fill="#c1c1bf" opacity="1" data-original="#000000"></path></g></svg>