<svg xmlns="http://www.w3.org/2000/svg" version="1.1" xmlns:xlink="http://www.w3.org/1999/xlink" width="512" height="512" x="0" y="0" viewBox="0 0 24 24" style="enable-background:new 0 0 512 512" xml:space="preserve" class=""><g><g fill="#000" fill-rule="evenodd" clip-rule="evenodd"><path d="m19 19.586 2.293-2.293 1.414 1.414-3 3a1 1 0 0 1-1.414 0l-1.5-1.5 1.414-1.414zM1.293 21.293l4-4 1.414 1.414-4 4z" fill="#c1c1bf" opacity="1" data-original="#000000" class=""></path><path d="m6.707 21.293-4-4-1.414 1.414 4 4zM11.293 9.293a1 1 0 0 1 1.414 0l3.5 3.5a1 1 0 0 1 0 1.414l-3.5 3.5a1 1 0 0 1-1.414 0l-3.5-3.5a1 1 0 0 1 0-1.414zM9.914 13.5 12 15.586l2.086-2.086L12 11.414z" fill="#c1c1bf" opacity="1" data-original="#000000" class=""></path><path d="M3 13.5a1 1 0 0 1 1-1h4.5v2H5v2H3zM21 13.5a1 1 0 0 0-1-1h-4.5v2H19v2h2zM13 6v4.5h-2V6z" fill="#c1c1bf" opacity="1" data-original="#000000" class=""></path><path d="M12 3a1 1 0 1 0 0 2 1 1 0 0 0 0-2zM9 4a3 3 0 1 1 6 0 3 3 0 0 1-6 0z" fill="#c1c1bf" opacity="1" data-original="#000000" class=""></path></g></g></svg>