<svg width="1118" height="91" viewBox="0 0 1118 91" fill="none" xmlns="http://www.w3.org/2000/svg">
<g filter="url(#filter0_n_35_35)">
<path d="M39.8 88.9999C32.6 88.9999 26 88.8499 20 88.5499C14.1 88.1499 9.35 87.4999 5.75 86.5999C2.25 85.6999 0.5 84.4499 0.5 82.8499L11 64.9999C13.9 66.2999 17.9 67.1999 23 67.6999C28.2 68.0999 35.05 68.2999 43.55 68.2999H48.5C53.2 68.2999 56.3 67.1999 57.8 64.9999C59.3 62.6999 60.05 60.2499 60.05 57.6499V12.7999L58.85 0.799909H89.3V62.1499C89.3 67.1499 88.65 71.6999 87.35 75.7999C86.15 79.8999 83.6 83.1499 79.7 85.5499C75.9 87.8499 70.05 88.9999 62.15 88.9999H39.8Z" fill="#3C3C3C"/>
<path d="M97.3191 88.9999L141.269 0.799909H180.269L224.069 88.9999H191.819L184.469 72.9499H137.069L128.819 88.9999H97.3191ZM145.319 52.2499H176.069L161.519 20.2999H160.019L145.319 52.2499Z" fill="#3C3C3C"/>
<path d="M253.807 88.9999L213.307 0.949907H244.957L267.157 54.0499L271.207 66.3499H272.557L276.457 54.0499L299.107 0.949907H330.007L327.607 9.94991L289.957 88.9999H253.807Z" fill="#3C3C3C"/>
<path d="M315.141 88.9999L359.091 0.799909H398.091L441.891 88.9999H409.641L402.291 72.9499H354.891L346.641 88.9999H315.141ZM363.141 52.2499H393.891L379.341 20.2999H377.841L363.141 52.2499Z" fill="#3C3C3C"/>
<path d="M505.05 88.9999C498.25 88.9999 493.25 88.6999 490.05 88.0999C486.85 87.4999 485.25 86.7999 485.25 85.9999L494.25 66.6499C496.55 67.0499 501.3 67.4499 508.5 67.8499C515.7 68.1499 525.05 68.2999 536.55 68.2999H548.4C551.9 68.2999 554.25 67.7999 555.45 66.7999C556.65 65.7999 557.25 64.3499 557.25 62.4499V60.9499C557.25 58.5499 556.65 56.8999 555.45 55.9999C554.25 55.0999 551.9 54.6499 548.4 54.6499H514.05C503.95 54.6499 496.6 52.7999 492 49.0999C487.4 45.2999 485.1 39.1499 485.1 30.6499V25.2499C485.1 20.8499 485.9 16.7999 487.5 13.0999C489.2 9.3999 492.05 6.44991 496.05 4.24991C500.05 1.94991 505.55 0.799909 512.55 0.799909H562.35C568.45 0.799909 573.5 1.14991 577.5 1.8499C581.6 2.54991 583.65 3.29991 583.65 4.0999L579.15 22.6999C576.35 22.3999 571.05 22.0999 563.25 21.7999C555.55 21.3999 545.75 21.1999 533.85 21.1999L523.05 21.0499C519.95 21.0499 517.75 21.4999 516.45 22.3999C515.15 23.1999 514.45 24.7499 514.35 27.0499V28.0999C514.35 30.3999 515.05 31.9999 516.45 32.8999C517.85 33.7999 520.1 34.2499 523.2 34.2499H556.2C562.6 34.2499 568.05 34.8999 572.55 36.1999C577.05 37.4999 580.5 39.8999 582.9 43.3999C585.3 46.7999 586.5 51.8499 586.5 58.5499V63.9499C586.5 71.4499 584.55 77.4999 580.65 82.0999C576.85 86.6999 570.2 88.9999 560.7 88.9999H505.05Z" fill="#3C3C3C"/>
<path d="M636.434 88.9999C625.734 88.9999 617.984 86.6499 613.184 81.9499C608.384 77.2499 605.984 69.6499 605.984 59.1499V31.6999C605.984 20.8999 608.634 13.0499 613.934 8.1499C619.234 3.1499 626.734 0.649902 636.434 0.649902H680.234C687.134 0.649902 692.384 1.0499 695.984 1.8499C699.684 2.54991 701.534 3.29991 701.534 4.0999L696.884 22.8499C694.384 22.5499 689.484 22.2499 682.184 21.9499C674.984 21.5499 665.884 21.3499 654.884 21.3499H647.234C642.534 21.3499 639.334 22.2499 637.634 24.0499C636.034 25.7499 635.234 28.3999 635.234 31.9999V57.6499C635.234 61.0499 635.934 63.6999 637.334 65.5999C638.834 67.3999 642.134 68.2999 647.234 68.2999H653.384C667.684 68.2999 678.584 68.1499 686.084 67.8499C693.584 67.4499 698.084 67.0499 699.584 66.6499L708.734 82.8499C708.734 83.3499 707.684 84.0999 705.584 85.0999C703.584 86.0999 700.134 86.9999 695.234 87.7999C690.434 88.5999 683.734 88.9999 675.134 88.9999H636.434Z" fill="#3C3C3C"/>
<path d="M821.143 90.4999C817.143 90.4999 812.693 89.8999 807.793 88.6999C802.893 87.3999 798.043 84.2999 793.243 79.3999L786.943 73.0999C783.943 70.0999 781.043 67.6499 778.243 65.7499C775.543 63.8499 772.443 62.4499 768.943 61.5499C765.443 60.5499 761.043 60.0499 755.743 60.0499H754.543V88.9999H725.293V12.7999L723.793 0.649902H793.243C799.643 0.649902 804.793 1.4499 808.693 3.04991C812.693 4.54991 815.743 6.59991 817.843 9.19991C820.043 11.6999 821.543 14.5499 822.343 17.7499C823.143 20.9499 823.543 24.1999 823.543 27.4999V30.3499C823.543 36.3499 821.993 41.7499 818.893 46.5499C815.893 51.2499 811.093 54.5999 804.493 56.5999C806.993 58.0999 809.343 59.6499 811.543 61.2499C813.843 62.7499 816.443 64.3499 819.343 66.0499C822.643 67.9499 825.693 69.3499 828.493 70.2499C831.393 71.0499 833.793 71.5499 835.693 71.7499C837.593 71.9499 838.693 72.0499 838.993 72.0499L834.493 88.9999C833.293 89.2999 831.443 89.5999 828.943 89.8999C826.543 90.2999 823.943 90.4999 821.143 90.4999ZM771.943 40.0999C774.443 40.0999 776.843 40.0499 779.143 39.9499C781.543 39.8499 783.693 39.6999 785.593 39.4999C788.993 39.0999 791.293 38.0499 792.493 36.3499C793.793 34.5499 794.443 32.3999 794.443 29.8999V28.2499C794.443 26.0499 793.793 24.3499 792.493 23.1499C791.293 21.9499 789.043 21.3499 785.743 21.3499H754.543V39.4999C757.043 39.5999 759.793 39.7499 762.793 39.9499C765.793 40.0499 768.843 40.0999 771.943 40.0999Z" fill="#3C3C3C"/>
<path d="M852.553 88.9999V0.799909H881.353V88.9999H852.553Z" fill="#3C3C3C"/>
<path d="M906.787 88.9999V12.7999L905.287 0.649902H974.737C981.437 0.649902 986.787 1.3999 990.787 2.89991C994.887 4.29991 997.937 6.24991 999.937 8.74991C1002.04 11.1499 1003.39 13.9999 1003.99 17.2999C1004.69 20.4999 1005.04 23.8999 1005.04 27.4999V39.3499C1005.04 44.1499 1004.24 48.5999 1002.64 52.6999C1001.14 56.6999 998.287 59.9499 994.087 62.4499C989.987 64.8499 984.037 66.0499 976.237 66.0499H965.887C959.587 66.0499 953.687 65.8999 948.187 65.5999C942.787 65.2999 938.737 65.0499 936.037 64.8499V88.9999H906.787ZM936.037 45.6499H967.087C970.387 45.6499 972.687 44.9999 973.987 43.6999C975.287 42.3999 975.937 40.2999 975.937 37.3999V29.7499C975.937 26.8499 975.337 24.7499 974.137 23.4499C972.937 22.0499 970.637 21.3499 967.237 21.3499H936.037V45.6499Z" fill="#3C3C3C"/>
<path d="M1052.69 88.9999V21.0499H1016.99V0.649902H1117.94V21.0499H1081.79V88.9999H1052.69Z" fill="#3C3C3C"/>
</g>
<defs>
<filter id="filter0_n_35_35" x="0.5" y="0.649902" width="1117.44" height="89.8501" filterUnits="userSpaceOnUse" color-interpolation-filters="sRGB">
<feFlood flood-opacity="0" result="BackgroundImageFix"/>
<feBlend mode="normal" in="SourceGraphic" in2="BackgroundImageFix" result="shape"/>
<feTurbulence type="fractalNoise" baseFrequency="2 2" stitchTiles="stitch" numOctaves="3" result="noise" seed="5427" />
<feColorMatrix in="noise" type="luminanceToAlpha" result="alphaNoise" />
<feComponentTransfer in="alphaNoise" result="coloredNoise1">
<feFuncA type="discrete" tableValues="1 1 1 1 1 1 1 1 1 1 1 1 1 1 1 1 1 1 1 1 1 1 1 1 1 1 1 1 1 1 1 1 1 1 1 1 1 1 1 1 1 1 1 1 1 1 1 1 1 1 1 0 0 0 0 0 0 0 0 0 0 0 0 0 0 0 0 0 0 0 0 0 0 0 0 0 0 0 0 0 0 0 0 0 0 0 0 0 0 0 0 0 0 0 0 0 0 0 0 0 "/>
</feComponentTransfer>
<feComposite operator="in" in2="shape" in="coloredNoise1" result="noise1Clipped" />
<feFlood flood-color="rgba(0, 0, 0, 0.25)" result="color1Flood" />
<feComposite operator="in" in2="noise1Clipped" in="color1Flood" result="color1" />
<feMerge result="effect1_noise_35_35">
<feMergeNode in="shape" />
<feMergeNode in="color1" />
</feMerge>
</filter>
</defs>
</svg>
