<svg xmlns="http://www.w3.org/2000/svg" version="1.1" xmlns:xlink="http://www.w3.org/1999/xlink" width="512" height="512" x="0" y="0" viewBox="0 0 512 512" style="enable-background:new 0 0 512 512" xml:space="preserve" class=""><g><g fill-rule="evenodd" clip-rule="evenodd"><circle cx="256" cy="256" r="240" fill="#bcbcbc" transform="rotate(-45 255.972 256.066)" opacity="1" data-original="#0cb0ff" class=""></circle><path fill="#bcbcbc" d="M492.978 294.096c-16.635 104.283-100.435 186.159-205.665 199.872L141.751 348.406c-19.776-25.419-30.414-56.454-30.414-88.735 0-74.321 56.444-136.699 130.373-143.948l2.707-.265V78.139l65.271 54.921 49.631 49.631 12.378-9.877z" opacity="1" data-original="#0092d8" class=""></path><path fill="#656565" d="m244.417 187.98 65.271-54.921-65.271-54.921v37.319l-2.707.265c-73.928 7.249-130.373 69.627-130.373 143.948 0 32.281 10.639 63.316 30.414 88.735l32.909-26.259c-13.798-17.933-21.223-39.774-21.223-62.476 0-50.82 37.307-94.092 87.544-101.467l3.436-.504zm21.027 245.882-65.27-54.92 65.27-54.921v37.839l3.371-.42c51.23-6.388 89.747-50.105 89.747-101.767 0-21.883-6.897-42.989-19.8-60.58l32.933-26.277c18.869 25.087 28.967 55.395 28.967 86.857 0 75.13-57.629 137.9-132.468 144.147l-2.751.23v29.812z" opacity="1" data-original="#ffffff" class=""></path></g></g></svg>